<svg xmlns="http://www.w3.org/2000/svg" viewBox="0 0 30.38 37.975" x="0px" y="0px"><title>Click 1</title><g data-name="Слой 2"><g data-name="Your Icon"><path d="M13.73,30.38a1,1,0,0,1-.89-.55L8.74,21.64.55,17.55a1,1,0,0,1,.18-1.86l17.68-5A1,1,0,0,1,19.64,12l-5,17.68a1,1,0,0,1-.87.73Zm-10-13.46L9.93,20a1,1,0,0,1,.45.45l3.08,6.17,3.77-13.47Z"/><path d="M22.21,9.17a1,1,0,0,1-.71-1.71l4.24-4.24a1,1,0,0,1,1.41,1.41L22.92,8.88A1,1,0,0,1,22.21,9.17Z"/><path d="M26.46,19.07a1,1,0,0,1-.71-.29l-4.24-4.24a1,1,0,0,1,1.41-1.41l4.24,4.24a1,1,0,0,1-.71,1.71Z"/><path d="M16.56,9.17a1,1,0,0,1-.71-.29L11.61,4.64A1,1,0,0,1,13,3.22l4.24,4.24a1,1,0,0,1-.71,1.71Z"/><path d="M19.38,8a1,1,0,0,1-1-1V1a1,1,0,0,1,2,0V7A1,1,0,0,1,19.38,8Z"/><path d="M29.38,12h-6a1,1,0,1,1,0-2h6a1,1,0,0,1,0,2Z"/></g></g></svg>