<svg xmlns="http://www.w3.org/2000/svg" xmlns:xlink="http://www.w3.org/1999/xlink" version="1.1" x="0px" y="0px" viewBox="0 0 100 125" enable-background="new 0 0 100 100" xml:space="preserve"><path d="M98.9,67.2V91c0,1.9-1.6,3.5-3.5,3.5H58.6c-1.9,0-3.5-1.6-3.5-3.5V67.2c0-1.9,1.6-3.5,3.5-3.5s3.5,1.6,3.5,3.5v20.3h29.8  V70.7H77c-1.9,0-3.5-1.6-3.5-3.5v-13h-47v9.5h14.9c1.9,0,3.5,1.6,3.5,3.5V91c0,1.9-1.6,3.5-3.5,3.5H4.6c-1.9,0-3.5-1.6-3.5-3.5V67.2  c0-1.9,1.6-3.5,3.5-3.5s3.5,1.6,3.5,3.5v20.3h29.8V70.7H23c-1.9,0-3.5-1.6-3.5-3.5V50.7c0-1.9,1.6-3.5,3.5-3.5h23.5V36.3H31.6  c-1.9,0-3.5-1.6-3.5-3.5V9c0-1.9,1.6-3.5,3.5-3.5h36.8c1.9,0,3.5,1.6,3.5,3.5v23.8c0,1.9-1.6,3.5-3.5,3.5s-3.5-1.6-3.5-3.5V12.5  H35.1v16.8H50c1.9,0,3.5,1.6,3.5,3.5v14.4H77c1.9,0,3.5,1.6,3.5,3.5v13h14.9C97.3,63.7,98.9,65.3,98.9,67.2z"/></svg>